<svg xmlns="http://www.w3.org/2000/svg" width="181" height="42" viewBox="0 0 181 42">
  <defs>
    <linearGradient id="a" x1="102.454%" x2="-2.592%" y1="69.595%" y2="12.26%">
      <stop stop-color="#1E87F0" offset="0%"/>
      <stop stop-color="#2AC4EE" offset="100%"/>
    </linearGradient>
    <linearGradient id="b" x1="27.337%" x2="86.222%" y1="25.624%" y2="74.536%">
      <stop stop-color="#42BEF9" offset="0%"/>
      <stop stop-color="#1F8AF0" offset="100%"/>
    </linearGradient>
  </defs>
  <g fill="none" fill-rule="evenodd" transform="translate(-127 -237)">
    <g fill-rule="nonzero" transform="translate(120.401 228.535)">
      <path fill="url(#a)" d="M35.7811626,11.2182011 L28.2824599,6.97648139 L20.4569272,11.7083475 L28.0602829,15.7973253 L35.7811626,11.2182011 Z M39.367099,13.0448389 L31.6232355,17.630228 L40.3999921,22.5689817 L40.3999921,35.615585 L28.5636287,42.1643934 L16.8645553,35.615585 L16.8645553,25.4327429 L9.01940971,21.6397024 L9.01940971,40.0706064 L28.2824599,51.2079362 L48.2451377,40.1532422 L48.2451377,18.0375894 L39.367099,13.0448389 Z" opacity=".139" transform="rotate(-31 28.632 29.092)"/>
      <path fill="url(#a)" d="M38.3475755,11.2181806 L30.8488728,6.97646081 L23.0233401,11.7083269 L30.6266958,15.7973047 L38.3475755,11.2181806 Z M41.9335119,13.0448184 L34.1896484,17.6302074 L42.966405,22.5689611 L42.966405,35.6155645 L31.1300416,42.1643728 L19.4309682,35.6155645 L19.4309682,25.4327223 L11.5858226,21.6396818 L11.5858226,40.0705858 L30.8488728,51.2079156 L50.8115506,40.1532216 L50.8115506,18.0375688 L41.9335119,13.0448184 Z" opacity=".284" transform="rotate(-31 31.199 29.092)"/>
      <path fill="url(#b)" d="M40.9139884,11.21816 L33.4152857,6.97644024 L25.589753,11.7083063 L33.1931087,15.7972842 L40.9139884,11.21816 Z M44.4999249,13.0447978 L36.7560613,17.6301868 L45.5328179,22.5689405 L45.5328179,35.6155439 L33.6964545,42.1643522 L21.9973811,35.6155439 L21.9973811,25.4327017 L14.1522355,21.6396613 L14.1522355,40.0705653 L33.4152857,51.207895 L53.3779635,40.153201 L53.3779635,18.0375482 L44.4999249,13.0447978 Z" transform="rotate(-31 33.765 29.092)"/>
    </g>
  </g>
</svg>
